<svg width="36" height="36" viewBox="0 0 36 36" fill="none" xmlns="http://www.w3.org/2000/svg">
<path fill-rule="evenodd" clip-rule="evenodd" d="M1.875 18C1.875 17.3787 2.37868 16.875 3 16.875H33C33.6213 16.875 34.125 17.3787 34.125 18C34.125 22.3621 32.8073 26.4048 30.0775 29.3687C27.3338 32.3478 23.2661 34.125 18 34.125C12.7339 34.125 8.6662 32.3478 5.9225 29.3687C3.19275 26.4048 1.875 22.3621 1.875 18ZM4.15812 19.125C4.36398 22.5819 5.52694 25.618 7.57752 27.8445C9.83383 30.2943 13.2661 31.875 18 31.875C22.7339 31.875 26.1662 30.2943 28.4225 27.8445C30.4731 25.618 31.636 22.5819 31.8419 19.125H4.15812Z" fill="#4640DE"/>
<path fill-rule="evenodd" clip-rule="evenodd" d="M12 4.875C12.6213 4.875 13.125 5.37868 13.125 6V18C13.125 18.6213 12.6213 19.125 12 19.125C11.3787 19.125 10.875 18.6213 10.875 18V6C10.875 5.37868 11.3787 4.875 12 4.875Z" fill="#4640DE"/>
<path fill-rule="evenodd" clip-rule="evenodd" d="M18 3.375C18.6213 3.375 19.125 3.87868 19.125 4.5V18C19.125 18.6213 18.6213 19.125 18 19.125C17.3787 19.125 16.875 18.6213 16.875 18V4.5C16.875 3.87868 17.3787 3.375 18 3.375Z" fill="#4640DE"/>
<path fill-rule="evenodd" clip-rule="evenodd" d="M24 1.875C24.6213 1.875 25.125 2.37868 25.125 3V18C25.125 18.6213 24.6213 19.125 24 19.125C23.3787 19.125 22.875 18.6213 22.875 18V3C22.875 2.37868 23.3787 1.875 24 1.875Z" fill="#4640DE"/>
<path fill-rule="evenodd" clip-rule="evenodd" d="M6 6.375C6.62132 6.375 7.125 6.87868 7.125 7.5V18C7.125 18.6213 6.62132 19.125 6 19.125C5.37868 19.125 4.875 18.6213 4.875 18V7.5C4.875 6.87868 5.37868 6.375 6 6.375Z" fill="#4640DE"/>
<path fill-rule="evenodd" clip-rule="evenodd" d="M34.0978 2.75305C34.2342 3.35921 33.8534 3.96117 33.2472 4.09756L3.2472 10.8476C2.64103 10.9839 2.03907 10.6031 1.90268 9.99695C1.7663 9.39079 2.14713 8.78883 2.75329 8.65244L32.7533 1.90244C33.3595 1.76605 33.9614 2.14688 34.0978 2.75305Z" fill="#4640DE"/>
</svg>
