<svg width="36" height="36" viewBox="0 0 36 36" fill="none" xmlns="http://www.w3.org/2000/svg">
<path fill-rule="evenodd" clip-rule="evenodd" d="M5.25 5.625C5.04289 5.625 4.875 5.79289 4.875 6V24C4.875 24.2071 5.04288 24.375 5.25 24.375H30.75C30.9571 24.375 31.125 24.2071 31.125 24V6C31.125 5.79288 30.9571 5.625 30.75 5.625H5.25ZM2.625 6C2.625 4.55025 3.80025 3.375 5.25 3.375H30.75C32.1998 3.375 33.375 4.55026 33.375 6V24C33.375 25.4498 32.1998 26.625 30.75 26.625H5.25C3.80026 26.625 2.625 25.4498 2.625 24V6Z" fill="#4640DE"/>
<path fill-rule="evenodd" clip-rule="evenodd" d="M5.25 19.125C5.04288 19.125 4.875 19.2929 4.875 19.5V24C4.875 24.2071 5.04288 24.375 5.25 24.375H30.75C30.9571 24.375 31.125 24.2071 31.125 24V19.5C31.125 19.2929 30.9571 19.125 30.75 19.125H5.25ZM2.625 19.5C2.625 18.0502 3.80026 16.875 5.25 16.875H30.75C32.1998 16.875 33.375 18.0502 33.375 19.5V24C33.375 25.4498 32.1998 26.625 30.75 26.625H5.25C3.80026 26.625 2.625 25.4498 2.625 24V19.5Z" fill="#4640DE"/>
<path fill-rule="evenodd" clip-rule="evenodd" d="M17.2028 8.12156C17.688 8.5097 17.7667 9.21765 17.3785 9.70282L14.3785 13.4528C13.9904 13.938 13.2824 14.0167 12.7973 13.6285C12.3121 13.2404 12.2334 12.5324 12.6216 12.0473L15.6216 8.29726C16.0097 7.81209 16.7177 7.73343 17.2028 8.12156Z" fill="#4640DE"/>
<path fill-rule="evenodd" clip-rule="evenodd" d="M21.6751 9.60007C22.1721 9.97286 22.2729 10.678 21.9001 11.1751L19.6501 14.1751C19.2773 14.6721 18.5721 14.7729 18.0751 14.4001C17.578 14.0273 17.4773 13.3221 17.8501 12.8251L20.1001 9.82507C20.4729 9.32801 21.178 9.22727 21.6751 9.60007Z" fill="#4640DE"/>
<path d="M18 23.25C18.8284 23.25 19.5 22.5784 19.5 21.75C19.5 20.9216 18.8284 20.25 18 20.25C17.1716 20.25 16.5 20.9216 16.5 21.75C16.5 22.5784 17.1716 23.25 18 23.25Z" fill="#4640DE"/>
<path fill-rule="evenodd" clip-rule="evenodd" d="M13.145 24.4467C13.7268 24.6649 14.0215 25.3133 13.8034 25.8951L12.1234 30.3751H23.8766L22.1966 25.8951C21.9785 25.3133 22.2732 24.6649 22.855 24.4467C23.4368 24.2285 24.0852 24.5233 24.3034 25.105L26.5534 31.105C26.6829 31.4505 26.6348 31.8376 26.4247 32.1409C26.2145 32.4441 25.869 32.6251 25.5 32.6251H10.5C10.131 32.6251 9.78551 32.4441 9.57534 32.1409C9.36517 31.8376 9.31708 31.4505 9.44664 31.105L11.6966 25.105C11.9148 24.5233 12.5633 24.2285 13.145 24.4467Z" fill="#4640DE"/>
</svg>
