<svg width="36" height="36" viewBox="0 0 36 36" fill="none" xmlns="http://www.w3.org/2000/svg">
<path fill-rule="evenodd" clip-rule="evenodd" d="M17.7271 4.90859C17.9063 4.8638 18.0937 4.8638 18.2729 4.90859L33.2729 8.65859C33.7737 8.78379 34.125 9.23377 34.125 9.75C34.125 10.2662 33.7737 10.7162 33.2729 10.8414L18.2729 14.5914C18.0937 14.6362 17.9063 14.6362 17.7271 14.5914L2.72715 10.8414C2.22633 10.7162 1.875 10.2662 1.875 9.75C1.875 9.23377 2.22633 8.78379 2.72715 8.65859L17.7271 4.90859ZM7.63849 9.75L18 12.3404L28.3615 9.75L18 7.15962L7.63849 9.75Z" fill="#4640DE"/>
<path fill-rule="evenodd" clip-rule="evenodd" d="M9.75 10.875C10.3713 10.875 10.875 11.3787 10.875 12V18.8093C10.8876 18.8157 10.9003 18.8222 10.9133 18.8287C11.3059 19.0269 11.8788 19.2941 12.5859 19.5619C14.0084 20.1005 15.9308 20.625 18 20.625C20.0692 20.625 21.9916 20.1005 23.4141 19.5619C24.1212 19.2941 24.6941 19.0269 25.0867 18.8287C25.0997 18.8222 25.1124 18.8157 25.125 18.8093V12C25.125 11.3787 25.6287 10.875 26.25 10.875C26.8713 10.875 27.375 11.3787 27.375 12V19.478C27.375 19.8714 27.1695 20.2362 26.833 20.4401L26.25 19.478C26.833 20.4401 26.8332 20.44 26.833 20.4401L26.8303 20.4418L26.8262 20.4442L26.8139 20.4515L26.7731 20.4755C26.7388 20.4955 26.6902 20.5234 26.6283 20.558C26.5044 20.6271 26.3266 20.7232 26.1008 20.8372C25.6496 21.065 25.0038 21.3658 24.2109 21.6661C22.6334 22.2634 20.4308 22.875 18 22.875C15.5692 22.875 13.3666 22.2634 11.7891 21.6661C10.9962 21.3658 10.3504 21.065 9.8992 20.8372C9.67336 20.7232 9.49555 20.6271 9.3717 20.558C9.30976 20.5234 9.26125 20.4955 9.22691 20.4755L9.18609 20.4515L9.17381 20.4442L9.16973 20.4418L9.16821 20.4408C9.16793 20.4407 9.16704 20.4401 9.75 19.478L9.16821 20.4408C8.83171 20.237 8.625 19.8714 8.625 19.478V12C8.625 11.3787 9.12868 10.875 9.75 10.875Z" fill="#4640DE"/>
<path fill-rule="evenodd" clip-rule="evenodd" d="M5.25 9.375C5.87132 9.375 6.375 9.87868 6.375 10.5V27C6.375 27.6213 5.87132 28.125 5.25 28.125C4.62868 28.125 4.125 27.6213 4.125 27V10.5C4.125 9.87868 4.62868 9.375 5.25 9.375Z" fill="#4640DE"/>
<path fill-rule="evenodd" clip-rule="evenodd" d="M1.875 25.5C1.875 24.8787 2.37868 24.375 3 24.375H7.5C8.12132 24.375 8.625 24.8787 8.625 25.5V30C8.625 30.6213 8.12132 31.125 7.5 31.125H3C2.37868 31.125 1.875 30.6213 1.875 30V25.5ZM4.125 26.625V28.875H6.375V26.625H4.125Z" fill="#4640DE"/>
</svg>
