<svg width="36" height="36" viewBox="0 0 36 36" fill="none" xmlns="http://www.w3.org/2000/svg">
<path fill-rule="evenodd" clip-rule="evenodd" d="M22.875 19.875H29.625V29.25C29.625 31.114 28.114 32.625 26.25 32.625C24.386 32.625 22.875 31.114 22.875 29.25V19.875ZM25.125 22.125V29.25C25.125 29.8714 25.6286 30.375 26.25 30.375C26.8714 30.375 27.375 29.8714 27.375 29.25V22.125H25.125Z" fill="#4640DE"/>
<path fill-rule="evenodd" clip-rule="evenodd" d="M20.625 9C20.625 8.37868 21.1287 7.875 21.75 7.875H29.25C31.114 7.875 32.625 9.386 32.625 11.25V18.75C32.625 20.614 31.114 22.125 29.25 22.125H21C20.3787 22.125 19.875 21.6213 19.875 21C19.875 20.3787 20.3787 19.875 21 19.875H29.25C29.8714 19.875 30.375 19.3714 30.375 18.75V11.25C30.375 10.6286 29.8714 10.125 29.25 10.125H21.75C21.1287 10.125 20.625 9.62132 20.625 9Z" fill="#4640DE"/>
<path fill-rule="evenodd" clip-rule="evenodd" d="M3.375 15C3.375 11.8934 5.8934 9.375 9 9.375H10.5V11.625H9C7.13604 11.625 5.625 13.136 5.625 15C5.625 16.864 7.13604 18.375 9 18.375H10.5V20.625H9C5.8934 20.625 3.375 18.1066 3.375 15Z" fill="#4640DE"/>
<path fill-rule="evenodd" clip-rule="evenodd" d="M11.625 5.625V23.625H13.125C18.0955 23.625 22.125 19.5955 22.125 14.625C22.125 9.65447 18.0955 5.625 13.125 5.625H11.625ZM9.375 4.64883C9.375 3.94565 9.94494 3.375 10.6488 3.375H13.125C19.3382 3.375 24.375 8.41183 24.375 14.625C24.375 20.8382 19.3382 25.875 13.125 25.875H10.6488C9.94529 25.875 9.375 25.3047 9.375 24.6012V4.64883Z" fill="#4640DE"/>
</svg>
