<svg width="36" height="36" viewBox="0 0 36 36" fill="none" xmlns="http://www.w3.org/2000/svg">
<path fill-rule="evenodd" clip-rule="evenodd" d="M7.875 3C7.875 2.37868 8.37868 1.875 9 1.875H27C27.6213 1.875 28.125 2.37868 28.125 3V13.2353C28.125 18.9424 23.6224 23.625 18 23.625C12.3776 23.625 7.875 18.9424 7.875 13.2353V3ZM10.125 4.125V13.2353C10.125 17.7617 13.6813 21.375 18 21.375C22.3187 21.375 25.875 17.7617 25.875 13.2353V4.125H10.125Z" fill="#4640DE"/>
<path fill-rule="evenodd" clip-rule="evenodd" d="M1.875 8.25C1.875 7.62868 2.37868 7.125 3 7.125H9C9.62132 7.125 10.125 7.62868 10.125 8.25V15.75C10.125 16.3713 9.62132 16.875 9 16.875C5.27012 16.875 1.875 13.7569 1.875 8.25ZM4.1834 9.375C4.50942 12.4004 6.1516 13.9972 7.875 14.4716V9.375H4.1834Z" fill="#4640DE"/>
<path fill-rule="evenodd" clip-rule="evenodd" d="M25.875 8.25C25.875 7.62868 26.3787 7.125 27 7.125H33C33.6213 7.125 34.125 7.62868 34.125 8.25C34.125 13.7569 30.7299 16.875 27 16.875C26.3787 16.875 25.875 16.3713 25.875 15.75V8.25ZM28.125 9.375V14.4716C29.8484 13.9972 31.4906 12.4004 31.8166 9.375H28.125Z" fill="#4640DE"/>
<path fill-rule="evenodd" clip-rule="evenodd" d="M18 22.875C18.6213 22.875 19.125 23.3787 19.125 24V27C19.125 27.6213 18.6213 28.125 18 28.125C17.3787 28.125 16.875 27.6213 16.875 27V24C16.875 23.3787 17.3787 22.875 18 22.875Z" fill="#4640DE"/>
<path fill-rule="evenodd" clip-rule="evenodd" d="M13.0592 26.4107C13.264 26.0778 13.6267 25.875 14.0175 25.875H21.7819C22.16 25.875 22.5128 26.0649 22.721 26.3806L25.6891 30.8806C25.917 31.2261 25.9368 31.6688 25.7406 32.0333C25.5444 32.3977 25.1639 32.625 24.75 32.625H11.25C10.8425 32.625 10.4668 32.4046 10.268 32.0489C10.0692 31.6932 10.0782 31.2578 10.2917 30.9107L13.0592 26.4107ZM14.6464 28.125L13.2626 30.375H22.6603L21.1762 28.125H14.6464Z" fill="#4640DE"/>
</svg>
