<svg width="36" height="36" viewBox="0 0 36 36" fill="none" xmlns="http://www.w3.org/2000/svg">
<path fill-rule="evenodd" clip-rule="evenodd" d="M10.125 24C11.1605 24 12 23.1605 12 22.125C12 21.0895 11.1605 20.25 10.125 20.25C9.08948 20.25 8.25 21.0895 8.25 22.125C8.25 23.1605 9.08948 24 10.125 24Z" fill="#4640DE"/>
<path fill-rule="evenodd" clip-rule="evenodd" d="M25.875 24C26.9105 24 27.75 23.1605 27.75 22.125C27.75 21.0895 26.9105 20.25 25.875 20.25C24.8395 20.25 24 21.0895 24 22.125C24 23.1605 24.8395 24 25.875 24Z" fill="#4640DE"/>
<path fill-rule="evenodd" clip-rule="evenodd" d="M10.6545 5.625C9.78298 5.625 9.02637 6.22553 8.8285 7.07435L7.09602 14.5065C7.02001 14.8326 6.80272 15.1079 6.5032 15.2575L5.99175 15.513L5.99168 15.5131C4.84775 16.0845 4.125 17.2535 4.125 18.5323V25.5C4.125 26.1213 4.62867 26.625 5.25 26.625H6.7504C7.37172 26.625 7.8754 27.1287 7.8754 27.75V28.5002C7.8754 29.5356 8.71477 30.375 9.75023 30.375C10.7857 30.375 11.625 29.5357 11.625 28.5002V27.75C11.625 27.1287 12.1287 26.625 12.75 26.625H23.25C23.8713 26.625 24.375 27.1287 24.375 27.75V28.5C24.375 29.5349 25.2151 30.375 26.2512 30.375C27.2873 30.375 28.1273 29.535 28.1273 28.5V27.75C28.1273 27.1287 28.631 26.625 29.2523 26.625H30.75C31.3714 26.625 31.875 26.1214 31.875 25.5V18.5311C31.875 17.2528 31.1528 16.0842 30.0095 15.5125C30.0095 15.5124 30.0094 15.5124 30.0094 15.5124L29.4993 15.2574C29.1966 15.1061 28.9781 14.8266 28.9044 14.4963L27.2506 7.09133L27.2506 7.09128C27.0593 6.23439 26.2988 5.625 25.4207 5.625H10.6545ZM6.63725 6.56356C7.07253 4.69623 8.73707 3.375 10.6545 3.375H25.4207C27.3524 3.375 29.0256 4.71558 29.4465 6.60096L30.9837 13.484L31.0156 13.4999L31.0157 13.5C32.9212 14.4529 34.125 16.4005 34.125 18.5311V25.5C34.125 27.364 32.614 28.875 30.75 28.875H30.3605C30.1709 30.9779 28.4024 32.625 26.2512 32.625C24.0999 32.625 22.3314 30.9779 22.1418 28.875H13.8582C13.6689 30.9774 11.902 32.625 9.75023 32.625C7.59851 32.625 5.83155 30.9775 5.64219 28.875H5.25C3.38605 28.875 1.875 27.364 1.875 25.5V18.5323C1.875 16.401 3.07951 14.4527 4.98615 13.5003C4.98617 13.5002 4.98619 13.5002 4.98622 13.5002L5.02476 13.481L6.63725 6.56356Z" fill="#4640DE"/>
<path fill-rule="evenodd" clip-rule="evenodd" d="M10.6408 10.6805C10.9077 9.47955 11.9729 8.625 13.2032 8.625H22.7968C24.0271 8.625 25.0924 9.47957 25.3592 10.6806L26.5982 16.2559C26.6722 16.5891 26.5911 16.9378 26.3776 17.2039C26.164 17.4701 25.8412 17.625 25.5 17.625H10.5C10.1588 17.625 9.83598 17.4701 9.62246 17.2039C9.40894 16.9378 9.32778 16.5891 9.4018 16.2559L10.6408 10.6806C10.6408 10.6806 10.6408 10.6805 10.6408 10.6805ZM13.2032 10.875C13.0275 10.875 12.8753 10.9971 12.8372 11.1686L12.8372 11.1686L11.9025 15.375H24.0976L23.1628 11.1686L23.1628 11.1686C23.1247 10.9971 22.9725 10.875 22.7968 10.875H13.2032Z" fill="#4640DE"/>
</svg>
