<svg width="36" height="36" viewBox="0 0 36 36" fill="none" xmlns="http://www.w3.org/2000/svg">
<path fill-rule="evenodd" clip-rule="evenodd" d="M7.50017 7.875C7.89534 7.875 8.26154 8.08234 8.46485 8.42119L12.9648 15.9212C13.2845 16.454 13.1118 17.145 12.579 17.4647C12.0462 17.7843 11.3552 17.6116 11.0355 17.0788L7.50017 11.1866L3.96485 17.0788C3.64518 17.6116 2.95414 17.7843 2.42136 17.4647C1.88858 17.145 1.71582 16.454 2.03549 15.9212L6.53549 8.42119C6.7388 8.08234 7.105 7.875 7.50017 7.875Z" fill="#4640DE"/>
<path fill-rule="evenodd" clip-rule="evenodd" d="M1.875 16.5C1.875 15.8787 2.37868 15.375 3 15.375H12C12.6213 15.375 13.125 15.8787 13.125 16.5C13.125 19.6066 10.6066 22.125 7.5 22.125C4.3934 22.125 1.875 19.6066 1.875 16.5ZM4.31704 17.625C4.78036 18.9358 6.0305 19.875 7.5 19.875C8.96949 19.875 10.2196 18.9358 10.683 17.625H4.31704Z" fill="#4640DE"/>
<path fill-rule="evenodd" clip-rule="evenodd" d="M28.5002 7.875C28.8953 7.875 29.2615 8.08234 29.4649 8.42119L33.9649 15.9212C34.2845 16.454 34.1118 17.145 33.579 17.4647C33.0462 17.7843 32.3552 17.6116 32.0355 17.0788L28.5002 11.1866L24.9649 17.0788C24.6452 17.6116 23.9541 17.7843 23.4214 17.4647C22.8886 17.145 22.7158 16.454 23.0355 15.9212L27.5355 8.42119C27.7388 8.08234 28.105 7.875 28.5002 7.875Z" fill="#4640DE"/>
<path fill-rule="evenodd" clip-rule="evenodd" d="M22.875 16.5C22.875 15.8787 23.3787 15.375 24 15.375H33C33.6213 15.375 34.125 15.8787 34.125 16.5C34.125 19.6066 31.6066 22.125 28.5 22.125C25.3934 22.125 22.875 19.6066 22.875 16.5ZM25.317 17.625C25.7804 18.9358 27.0305 19.875 28.5 19.875C29.9695 19.875 31.2196 18.9358 31.683 17.625H25.317Z" fill="#4640DE"/>
<path fill-rule="evenodd" clip-rule="evenodd" d="M18 3.375C18.6213 3.375 19.125 3.87868 19.125 4.5V31.5C19.125 32.1213 18.6213 32.625 18 32.625C17.3787 32.625 16.875 32.1213 16.875 31.5V4.5C16.875 3.87868 17.3787 3.375 18 3.375Z" fill="#4640DE"/>
<path fill-rule="evenodd" clip-rule="evenodd" d="M6.375 9C6.375 8.37868 6.87868 7.875 7.5 7.875H28.5C29.1213 7.875 29.625 8.37868 29.625 9C29.625 9.62132 29.1213 10.125 28.5 10.125H7.5C6.87868 10.125 6.375 9.62132 6.375 9Z" fill="#4640DE"/>
<path fill-rule="evenodd" clip-rule="evenodd" d="M6.375 9C6.375 8.37868 6.87868 7.875 7.5 7.875H28.5C29.1213 7.875 29.625 8.37868 29.625 9C29.625 9.62132 29.1213 10.125 28.5 10.125H7.5C6.87868 10.125 6.375 9.62132 6.375 9Z" fill="#4640DE"/>
<path fill-rule="evenodd" clip-rule="evenodd" d="M6.375 31.5C6.375 30.8787 6.87868 30.375 7.5 30.375H28.5C29.1213 30.375 29.625 30.8787 29.625 31.5C29.625 32.1213 29.1213 32.625 28.5 32.625H7.5C6.87868 32.625 6.375 32.1213 6.375 31.5Z" fill="#4640DE"/>
</svg>
