<svg width="36" height="36" viewBox="0 0 36 36" fill="none" xmlns="http://www.w3.org/2000/svg">
<path fill-rule="evenodd" clip-rule="evenodd" d="M9 4.875C7.13604 4.875 5.625 6.38604 5.625 8.25V27.75C5.625 29.614 7.13604 31.125 9 31.125C10.864 31.125 12.375 29.614 12.375 27.75V8.25C12.375 6.38604 10.864 4.875 9 4.875ZM3.375 8.25C3.375 5.1434 5.8934 2.625 9 2.625C12.1066 2.625 14.625 5.1434 14.625 8.25V27.75C14.625 30.8566 12.1066 33.375 9 33.375C5.8934 33.375 3.375 30.8566 3.375 27.75V8.25Z" fill="#4640DE"/>
<path fill-rule="evenodd" clip-rule="evenodd" d="M27 4.875C25.136 4.875 23.625 6.38604 23.625 8.25V27.75C23.625 29.614 25.136 31.125 27 31.125C28.864 31.125 30.375 29.614 30.375 27.75V8.25C30.375 6.38604 28.864 4.875 27 4.875ZM21.375 8.25C21.375 5.1434 23.8934 2.625 27 2.625C30.1066 2.625 32.625 5.1434 32.625 8.25V27.75C32.625 30.8566 30.1066 33.375 27 33.375C23.8934 33.375 21.375 30.8566 21.375 27.75V8.25Z" fill="#4640DE"/>
<path fill-rule="evenodd" clip-rule="evenodd" d="M3.375 27.75C3.375 24.6434 5.8934 22.125 9 22.125C12.1066 22.125 14.625 24.6434 14.625 27.75C14.625 30.8566 12.1066 33.375 9 33.375C5.8934 33.375 3.375 30.8566 3.375 27.75ZM9 24.375C7.13604 24.375 5.625 25.886 5.625 27.75C5.625 29.614 7.13604 31.125 9 31.125C10.864 31.125 12.375 29.614 12.375 27.75C12.375 25.886 10.864 24.375 9 24.375Z" fill="#4640DE"/>
<path fill-rule="evenodd" clip-rule="evenodd" d="M21.375 27.75C21.375 24.6434 23.8934 22.125 27 22.125C30.1066 22.125 32.625 24.6434 32.625 27.75C32.625 30.8566 30.1066 33.375 27 33.375C23.8934 33.375 21.375 30.8566 21.375 27.75ZM27 24.375C25.136 24.375 23.625 25.886 23.625 27.75C23.625 29.614 25.136 31.125 27 31.125C28.864 31.125 30.375 29.614 30.375 27.75C30.375 25.886 28.864 24.375 27 24.375Z" fill="#4640DE"/>
<path fill-rule="evenodd" clip-rule="evenodd" d="M12.375 15.75C12.375 12.6434 14.8934 10.125 18 10.125C21.1066 10.125 23.625 12.6434 23.625 15.75C23.625 16.3713 23.1213 16.875 22.5 16.875C21.8787 16.875 21.375 16.3713 21.375 15.75C21.375 13.886 19.864 12.375 18 12.375C16.136 12.375 14.625 13.886 14.625 15.75C14.625 16.3713 14.1213 16.875 13.5 16.875C12.8787 16.875 12.375 16.3713 12.375 15.75Z" fill="#4640DE"/>
<path fill-rule="evenodd" clip-rule="evenodd" d="M12.375 23.25C12.375 20.1434 14.8934 17.625 18 17.625C21.1066 17.625 23.625 20.1434 23.625 23.25C23.625 23.8713 23.1213 24.375 22.5 24.375C21.8787 24.375 21.375 23.8713 21.375 23.25C21.375 21.386 19.864 19.875 18 19.875C16.136 19.875 14.625 21.386 14.625 23.25C14.625 23.8713 14.1213 24.375 13.5 24.375C12.8787 24.375 12.375 23.8713 12.375 23.25Z" fill="#4640DE"/>
</svg>
