<svg width="36" height="36" viewBox="0 0 36 36" fill="none" xmlns="http://www.w3.org/2000/svg">
<path fill-rule="evenodd" clip-rule="evenodd" d="M23.2045 5.20447C24.2111 4.19784 25.5764 3.63232 27 3.63232C28.4236 3.63232 29.7889 4.19784 30.7955 5.20447C31.8021 6.2111 32.3676 7.57638 32.3676 8.99997C32.3676 10.4236 31.8021 11.7888 30.7955 12.7955L11.2955 32.2955C11.0845 32.5064 10.7984 32.625 10.5 32.625H4.5C3.87868 32.625 3.375 32.1213 3.375 31.5V25.5C3.375 25.2016 3.49353 24.9154 3.7045 24.7045L23.2045 5.20447ZM27 5.88232C26.1731 5.88232 25.3802 6.21079 24.7955 6.79546L5.625 25.966V30.375H10.034L29.2045 11.2045C29.7892 10.6198 30.1176 9.82682 30.1176 8.99997C30.1176 8.17311 29.7892 7.38013 29.2045 6.79546C28.6198 6.21079 27.8268 5.88232 27 5.88232Z" fill="#4640DE"/>
<path fill-rule="evenodd" clip-rule="evenodd" d="M20.9545 7.4545C21.3938 7.01517 22.1062 7.01517 22.5455 7.4545L28.5455 13.4545C28.9848 13.8938 28.9848 14.6062 28.5455 15.0455C28.1062 15.4848 27.3938 15.4848 26.9545 15.0455L20.9545 9.0455C20.5152 8.60616 20.5152 7.89384 20.9545 7.4545Z" fill="#4640DE"/>
<path fill-rule="evenodd" clip-rule="evenodd" d="M9.7045 3.7045C10.1438 3.26517 10.8562 3.26517 11.2955 3.7045L18.7955 11.2045C19.2348 11.6438 19.2348 12.3562 18.7955 12.7955C18.3562 13.2348 17.6438 13.2348 17.2045 12.7955L10.5 6.09099L6.09099 10.5L12.7955 17.2045C13.2348 17.6438 13.2348 18.3562 12.7955 18.7955C12.3562 19.2348 11.6438 19.2348 11.2045 18.7955L3.7045 11.2955C3.26517 10.8562 3.26517 10.1438 3.7045 9.7045L9.7045 3.7045Z" fill="#4640DE"/>
<path fill-rule="evenodd" clip-rule="evenodd" d="M11.2955 11.2045C11.7348 11.6438 11.7348 12.3562 11.2955 12.7955L9.0455 15.0455C8.60616 15.4848 7.89384 15.4848 7.45451 15.0455C7.01517 14.6062 7.01516 13.8938 7.4545 13.4545L9.7045 11.2045C10.1438 10.7652 10.8562 10.7652 11.2955 11.2045Z" fill="#4640DE"/>
<path fill-rule="evenodd" clip-rule="evenodd" d="M23.2045 17.2045C23.6438 16.7652 24.3562 16.7652 24.7955 17.2045L32.2955 24.7045C32.7348 25.1438 32.7348 25.8562 32.2955 26.2955L26.2955 32.2955C25.8562 32.7348 25.1438 32.7348 24.7045 32.2955L17.2045 24.7955C16.7652 24.3562 16.7652 23.6438 17.2045 23.2045C17.6438 22.7652 18.3562 22.7652 18.7955 23.2045L25.5 29.909L29.909 25.5L23.2045 18.7955C22.7652 18.3562 22.7652 17.6438 23.2045 17.2045Z" fill="#4640DE"/>
<path fill-rule="evenodd" clip-rule="evenodd" d="M24.7955 24.7045C25.2348 25.1438 25.2348 25.8562 24.7955 26.2955L22.5455 28.5455C22.1062 28.9848 21.3938 28.9848 20.9545 28.5455C20.5152 28.1062 20.5152 27.3938 20.9545 26.9545L23.2045 24.7045C23.6438 24.2652 24.3562 24.2652 24.7955 24.7045Z" fill="#4640DE"/>
</svg>
