<svg width="20" height="20" viewBox="0 0 20 20" fill="none" xmlns="http://www.w3.org/2000/svg">
<path d="M0 9.99994C0 15.5234 4.47653 19.9999 9.99999 19.9999C15.5235 19.9999 20 15.5208 20 9.99994C20 4.47906 15.5235 -5.14984e-05 9.99999 -5.14984e-05C4.47653 -5.14984e-05 0 4.47648 0 9.99994Z" fill="#FFD96B"/>
<path d="M17.0602 2.8572L2.85693 17.0617C6.7807 20.9799 13.1364 20.9799 17.0576 17.0591C20.9788 13.1357 20.9814 6.7806 17.0602 2.8572Z" fill="#FDC223"/>
<path d="M2.85693 10.0001C2.85693 13.9438 6.05405 17.1404 9.99852 17.1429C13.943 17.1429 17.1401 13.9464 17.1426 10.0026V10.0001C17.1426 6.05629 13.9455 2.85973 10.0011 2.8572C6.05659 2.85467 2.85693 6.05375 2.85693 10.0001C2.85693 9.99752 2.85693 9.99752 2.85693 10.0001Z" fill="#F9AB10"/>
<path d="M15.7141 4.94006C12.7259 2.11726 8.0164 2.16056 5.08782 5.08891C2.16195 8.01726 2.11594 12.7264 4.93895 15.7143C4.93895 15.7116 15.7141 4.94006 15.7141 4.94006Z" fill="#F9B721"/>
<path d="M7.14307 14.2855H10.6788C12.4788 14.2855 13.5716 13.3588 13.5716 11.862V11.8501C13.5716 10.7215 12.7651 9.878 11.5788 9.77108V9.74138C12.4846 9.61664 13.1684 8.79098 13.1684 7.87028V7.8584C13.1684 6.55754 12.1807 5.71406 10.6437 5.71406H7.14307V14.2855ZM10.2638 6.908C11.158 6.908 11.6781 7.3238 11.6781 8.0663V8.07818C11.6781 8.88602 11.0937 9.33746 10.0067 9.33746H8.65086V6.908H10.2638ZM10.2463 10.4482C11.4268 10.4482 12.0346 10.8997 12.0346 11.761V11.7729C12.0346 12.6342 11.4385 13.0915 10.334 13.0915H8.65086V10.4482H10.2463Z" fill="#D3830D"/>
<mask id="mask0_177_26715" style="mask-type:alpha" maskUnits="userSpaceOnUse" x="7" y="4" width="12" height="14">
<rect x="15.2944" y="4.28553" width="4.76134" height="12.7103" transform="rotate(39.8941 15.2944 4.28553)" fill="#C4C4C4"/>
</mask>
<g mask="url(#mask0_177_26715)">
<path d="M7.14258 14.2856H10.6783C12.4783 14.2856 13.5711 13.359 13.5711 11.8621V11.8502C13.5711 10.7216 12.7647 9.87811 11.5783 9.77119V9.74149C12.4841 9.61675 13.1679 8.79109 13.1679 7.87039V7.85851C13.1679 6.55765 12.1802 5.71417 10.6432 5.71417H7.14258V14.2856ZM10.2634 6.90811C11.1575 6.90811 11.6776 7.32391 11.6776 8.06641V8.07829C11.6776 8.88613 11.0932 9.33757 10.0062 9.33757H8.65037V6.90811H10.2634ZM10.2458 10.4483C11.4263 10.4483 12.0341 10.8998 12.0341 11.7611V11.773C12.0341 12.6343 11.438 13.0917 10.3335 13.0917H8.65037V10.4483H10.2458Z" fill="#BF790A"/>
</g>
</svg>
