<svg width="40" height="40" viewBox="0 0 40 40" fill="none" xmlns="http://www.w3.org/2000/svg">
<path d="M20 40C31.0457 40 40 31.0457 40 20C40 8.9543 31.0457 0 20 0C8.9543 0 0 8.9543 0 20C0 31.0457 8.9543 40 20 40Z" fill="#F8F4FF"/>
<g filter="url(#filter0_d_1138_865)">
<path d="M9.23096 32.3077H27.1495C28.8489 32.3077 30.2264 30.9301 30.2264 29.2308V8.46153L27.602 6.15384L24.9776 8.46153L22.3531 6.15384L19.7287 8.46153L17.1043 6.15384L14.4798 8.46153L11.9233 6.15384L9.23096 8.46153V32.3077Z" fill="white"/>
</g>
<path d="M14.3529 22.9409H12.5882C12.2634 22.9409 12 23.2043 12 23.5292C12 23.8541 12.2634 24.1174 12.5882 24.1174H14.3529C14.6778 24.1174 14.9412 23.8541 14.9412 23.5292C14.9412 23.2043 14.6778 22.9409 14.3529 22.9409Z" fill="#B78DFF"/>
<path d="M13.8915 25.8827H12.1268C11.8019 25.8827 11.5386 26.1461 11.5386 26.4709C11.5386 26.7958 11.8019 27.0592 12.1268 27.0592H13.8915C14.2164 27.0592 14.4798 26.7958 14.4798 26.4709C14.4798 26.1461 14.2164 25.8827 13.8915 25.8827Z" fill="#EDE2FF"/>
<path d="M21.5386 22.9409H16.2445C15.9196 22.9409 15.6562 23.2043 15.6562 23.5292C15.6562 23.8541 15.9196 24.1174 16.2445 24.1174H21.5386C21.8635 24.1174 22.1268 23.8541 22.1268 23.5292C22.1268 23.2043 21.8635 22.9409 21.5386 22.9409Z" fill="#B78DFF"/>
<path d="M21.5386 25.8827H16.2445C15.9196 25.8827 15.6562 26.1461 15.6562 26.4709C15.6562 26.7958 15.9196 27.0592 16.2445 27.0592H21.5386C21.8635 27.0592 22.1268 26.7958 22.1268 26.4709C22.1268 26.1461 21.8635 25.8827 21.5386 25.8827Z" fill="#EDE2FF"/>
<path d="M27.8282 22.9409H24.8871C24.5622 22.9409 24.2988 23.2043 24.2988 23.5292C24.2988 23.8541 24.5622 24.1174 24.8871 24.1174H27.8282C28.1531 24.1174 28.4165 23.8541 28.4165 23.5292C28.4165 23.2043 28.1531 22.9409 27.8282 22.9409Z" fill="#B78DFF"/>
<path d="M20.2353 12.9409H12.5882C12.2634 12.9409 12 13.2043 12 13.5292C12 13.8541 12.2634 14.1174 12.5882 14.1174H20.2353C20.5602 14.1174 20.8235 13.8541 20.8235 13.5292C20.8235 13.2043 20.5602 12.9409 20.2353 12.9409Z" fill="#B78DFF"/>
<path d="M27.8282 25.8827H24.8871C24.5622 25.8827 24.2988 26.1461 24.2988 26.4709C24.2988 26.7958 24.5622 27.0592 24.8871 27.0592H27.8282C28.1531 27.0592 28.4165 26.7958 28.4165 26.4709C28.4165 26.1461 28.1531 25.8827 27.8282 25.8827Z" fill="#EDE2FF"/>
<path d="M15.5294 15.8827H12.5882C12.2634 15.8827 12 16.1461 12 16.4709C12 16.7958 12.2634 17.0592 12.5882 17.0592H15.5294C15.8543 17.0592 16.1176 16.7958 16.1176 16.4709C16.1176 16.1461 15.8543 15.8827 15.5294 15.8827Z" fill="#EDE2FF"/>
<defs>
<filter id="filter0_d_1138_865" x="8.84697" y="5.76985" width="22.5316" height="27.6898" filterUnits="userSpaceOnUse" color-interpolation-filters="sRGB">
<feFlood flood-opacity="0" result="BackgroundImageFix"/>
<feColorMatrix in="SourceAlpha" type="matrix" values="0 0 0 0 0 0 0 0 0 0 0 0 0 0 0 0 0 0 127 0" result="hardAlpha"/>
<feOffset dx="0.383991" dy="0.383991"/>
<feGaussianBlur stdDeviation="0.383991"/>
<feColorMatrix type="matrix" values="0 0 0 0 0 0 0 0 0 0 0 0 0 0 0 0 0 0 0.12 0"/>
<feBlend mode="normal" in2="BackgroundImageFix" result="effect1_dropShadow_1138_865"/>
<feBlend mode="normal" in="SourceGraphic" in2="effect1_dropShadow_1138_865" result="shape"/>
</filter>
</defs>
</svg>
