<svg width="52" height="52" viewBox="0 0 52 52" fill="none" xmlns="http://www.w3.org/2000/svg">
<path d="M0 26C-1.38415e-07 35.2889 4.95557 43.8722 13 48.5167C21.0444 53.1611 30.9556 53.1611 39 48.5167C47.0444 43.8722 52 35.2889 52 26C52 11.6406 40.3594 0 26 0C11.6406 0 0 11.6406 0 26Z" fill="white"/>
<path d="M0 26C-1.38415e-07 35.2889 4.95557 43.8722 13 48.5167C21.0444 53.1611 30.9556 53.1611 39 48.5167C47.0444 43.8722 52 35.2889 52 26C52 11.6406 40.3594 0 26 0C11.6406 0 0 11.6406 0 26Z" fill="#B9BBBD"/>
<mask id="mask0_1366_13875" style="mask-type:alpha" maskUnits="userSpaceOnUse" x="0" y="0" width="52" height="52">
<path d="M0 26C-1.38415e-07 35.2889 4.95557 43.8722 13 48.5167C21.0444 53.1611 30.9556 53.1611 39 48.5167C47.0444 43.8722 52 35.2889 52 26C52 11.6406 40.3594 0 26 0C11.6406 0 0 11.6406 0 26Z" fill="white"/>
</mask>
<g mask="url(#mask0_1366_13875)">
<path d="M17.3335 33.222C17.3335 35.6152 21.537 37.5553 26.7224 37.5553C31.9077 37.5553 36.1113 35.6152 36.1113 33.222C36.1113 30.8288 31.9077 28.8887 26.7224 28.8887C21.537 28.8887 17.3335 30.8288 17.3335 33.222H17.3335Z" fill="#2B64D8"/>
<path d="M37.5553 49.6403C34.2881 51.157 30.677 51.9996 26.722 51.9996C22.767 51.9996 19.1559 51.157 15.8887 49.6403C16.5765 43.7422 17.7802 35.4848 19.4998 34.4736C22.2511 32.7885 21.5633 31.7773 21.5633 31.7773H31.8807C31.8807 31.7773 31.1929 32.7885 33.9442 34.4736C35.6638 35.4848 36.8675 43.7422 37.5553 49.6403Z" fill="#FFDBD2"/>
<path fill-rule="evenodd" clip-rule="evenodd" d="M9.98836 46.944C8.40941 45.6107 7.0059 44.1107 5.77783 42.444C7.53222 39.7773 8.93573 38.2773 8.93573 38.2773L9.98836 46.944ZM45.0761 46.6107L46.1287 38.2773C46.1287 38.2773 47.3568 39.7773 49.1112 42.1107C47.8831 43.7773 46.655 45.2773 45.0761 46.6107Z" fill="#F5F9FF"/>
<path d="M42.9186 36.562C41.7015 36.0452 40.4844 35.7006 39.6151 35.5284C39.2673 35.3561 36.6593 34.667 36.4854 34.667C36.4854 34.667 35.2684 37.5956 31.4433 38.9738C27.6181 40.352 27.4443 43.7975 27.4443 43.7975C27.4443 43.7975 26.5749 40.6966 22.0544 38.6293C17.5338 36.562 18.4031 35.1838 17.5338 35.3561C16.6644 35.5284 13.7087 35.8729 11.97 36.562C8.6665 37.7679 8.6665 38.2847 8.6665 39.8352V45.6925C13.3609 50.5161 19.9679 53.4448 27.2704 53.4448H27.4443C34.9206 53.4448 41.5276 50.3438 46.2221 45.3479V40.0075C46.2221 38.2847 46.2221 37.7679 42.9186 36.562V36.562Z" fill="#E2E6ED"/>
<path fill-rule="evenodd" clip-rule="evenodd" d="M26.381 38.8119C26.381 38.8119 28.4295 35.4206 33.8921 34.667C33.8921 34.667 34.958 36.1796 35.6517 37.1412C35.0674 36.3778 33.7741 35.2713 32.185 35.7974C30.3072 36.3626 27.4052 38.0583 27.4052 39.9424V52.0003H25.3567V39.9424C25.3567 38.0583 22.4547 36.3626 20.5769 35.7974C19.2113 35.4206 17.8456 36.1742 17.3335 36.9279L18.8699 34.667C24.3325 35.4206 26.381 38.8119 26.381 38.8119ZM35.7699 37.3047C35.7319 37.2524 35.6924 37.1977 35.6517 37.1412C35.695 37.1978 35.7345 37.2526 35.7699 37.3047Z" fill="#2B64D8"/>
<path d="M34.0751 30.333C34.0751 30.333 36.3724 33.4845 31.7778 36.2421C31.7778 36.2421 33.4187 35.8482 35.3878 38.9997C36.3724 37.03 36.7006 33.8785 34.0751 30.333Z" fill="#F5F9FF"/>
<path d="M19.3696 30.333C19.3696 30.333 17.0723 33.4845 21.6668 36.2421C21.6668 36.2421 20.0259 35.8482 18.0568 38.9997C17.0723 37.03 16.7441 33.8785 19.3696 30.333Z" fill="#F5F9FF"/>
<path d="M26 44.0552C26 44.4541 26.3233 44.7775 26.7222 44.7775C27.1211 44.7775 27.4444 44.4541 27.4444 44.0552C27.4444 43.6564 27.1211 43.333 26.7222 43.333C26.3233 43.333 26 43.6564 26 44.0552H26Z" fill="#E2E6ED"/>
<path d="M26 49.8336C26 50.2324 26.3233 50.5558 26.7222 50.5558C27.1211 50.5558 27.4444 50.2324 27.4444 49.8336C27.4444 49.4347 27.1211 49.1113 26.7222 49.1113C26.3233 49.1113 26 49.4347 26 49.8336H26Z" fill="#E2E6ED"/>
<path d="M20.2385 28.7665C22.5234 31.9743 24.1052 33.2218 27.2688 33.2218C30.4325 33.2218 32.0143 31.9743 34.2992 28.7665C36.0568 26.2716 37.4628 23.7766 37.4628 20.2124C37.4628 12.1929 39.2204 5.77734 27.4446 5.77734C15.6688 5.77734 17.4264 12.1929 17.4264 20.2124C17.2506 23.5984 18.6567 26.2716 20.2385 28.7665Z" fill="#FFEAE5"/>
<path d="M16.0568 18.6603L16.4071 21.2906L17.1077 21.6663C17.1077 18.4725 18.5088 17.9088 18.5088 14.9028C18.5088 14.1513 21.3111 13.0241 25.5146 13.7756C29.7181 14.5271 32.3452 13.3998 34.2718 14.1513C36.0233 14.9028 36.0233 21.2906 36.0233 21.2906L36.7239 20.5391C36.7239 20.5391 37.9499 15.6543 37.4244 12.4605C36.7239 8.5151 35.673 7.7636 36.0233 5.88485C35.4978 4.38185 22.0117 2.5031 18.1585 8.13935C15.0059 12.2726 16.0568 18.6603 16.0568 18.6603Z" fill="#3A4045"/>
<path fill-rule="evenodd" clip-rule="evenodd" d="M16.6934 22.7496C16.3484 20.7635 16.3484 18.7773 17.0383 18.7773C18.418 21.3051 18.418 25.9996 18.418 25.9996C18.2456 25.9996 17.7282 25.6385 17.3832 24.5551C17.3227 24.3651 17.2622 24.264 17.1943 24.1504C17.0686 23.9402 16.9173 23.6873 16.6934 22.7496ZM37.9069 22.7496C38.2518 20.7635 38.2518 18.7773 37.562 18.7773C36.1822 21.3051 36.1822 25.9996 36.1822 25.9996C36.3547 25.9996 36.8721 25.6385 37.217 24.5551C37.2775 24.3651 37.338 24.264 37.406 24.1504C37.5317 23.9402 37.683 23.6873 37.9069 22.7496Z" fill="#FFE1DA"/>
</g>
</svg>
