<svg width="36" height="36" viewBox="0 0 36 36" fill="none" xmlns="http://www.w3.org/2000/svg">
<path fill-rule="evenodd" clip-rule="evenodd" d="M9.75 4.875C7.88604 4.875 6.375 6.38604 6.375 8.25H5.25H4.125C4.125 5.1434 6.6434 2.625 9.75 2.625H26.25C26.8713 2.625 27.375 3.12868 27.375 3.75V23.25C27.375 23.8713 26.8713 24.375 26.25 24.375H9.75C7.89439 24.375 6.375 25.8864 6.375 27.75C6.375 28.3713 5.87132 28.875 5.25 28.875C4.62868 28.875 4.125 28.3713 4.125 27.75V8.25C4.125 8.2499 4.125 8.25 5.25 8.25C6.375 8.25 6.375 8.2499 6.375 8.25V23.2525C7.31668 22.5444 8.48633 22.125 9.75 22.125H25.125V4.875H9.75Z" fill="#4640DE"/>
<path fill-rule="evenodd" clip-rule="evenodd" d="M30.75 4.125C31.3713 4.125 31.875 4.62868 31.875 5.25V32.25C31.875 32.8713 31.3713 33.375 30.75 33.375H9.75C6.6434 33.375 4.125 30.8566 4.125 27.75C4.125 24.6434 6.6434 22.125 9.75 22.125H26.2493C26.2494 22.125 26.25 22.125 26.25 23.25C26.25 24.375 26.2499 24.375 26.2498 24.375H9.75C7.88604 24.375 6.375 25.886 6.375 27.75C6.375 29.614 7.88604 31.125 9.75 31.125H29.625V5.25C29.625 4.62868 30.1287 4.125 30.75 4.125ZM27.375 23.25C27.375 23.8713 26.8711 24.375 26.2498 24.375L26.25 23.25L26.2493 22.125C26.8706 22.125 27.375 22.6287 27.375 23.25Z" fill="#4640DE"/>
<path fill-rule="evenodd" clip-rule="evenodd" d="M9.375 27.75C9.375 27.1287 9.87868 26.625 10.5 26.625H25.5C26.1213 26.625 26.625 27.1287 26.625 27.75C26.625 28.3713 26.1213 28.875 25.5 28.875H10.5C9.87868 28.875 9.375 28.3713 9.375 27.75Z" fill="#4640DE"/>
</svg>
