<svg width="36" height="36" viewBox="0 0 36 36" fill="none" xmlns="http://www.w3.org/2000/svg">
<path fill-rule="evenodd" clip-rule="evenodd" d="M4.58318 7.58318C5.35677 6.8096 6.40598 6.375 7.5 6.375H22.5C23.594 6.375 24.6432 6.8096 25.4168 7.58318C26.1904 8.35677 26.625 9.40598 26.625 10.5V12.375H28.5C29.594 12.375 30.6432 12.8096 31.4168 13.5832C32.1904 14.3568 32.625 15.406 32.625 16.5V25.5C32.625 26.594 32.1904 27.6432 31.4168 28.4168C30.6432 29.1904 29.594 29.625 28.5 29.625H13.5C12.406 29.625 11.3568 29.1904 10.5832 28.4168C9.8096 27.6432 9.375 26.594 9.375 25.5V23.625H7.5C6.40598 23.625 5.35677 23.1904 4.58318 22.4168C3.8096 21.6432 3.375 20.594 3.375 19.5V10.5C3.375 9.40598 3.8096 8.35677 4.58318 7.58318ZM11.625 25.5C11.625 25.9973 11.8225 26.4742 12.1742 26.8258C12.5258 27.1775 13.0027 27.375 13.5 27.375H28.5C28.9973 27.375 29.4742 27.1775 29.8258 26.8258C30.1775 26.4742 30.375 25.9973 30.375 25.5V16.5C30.375 16.0027 30.1775 15.5258 29.8258 15.1742C29.4742 14.8225 28.9973 14.625 28.5 14.625H13.5C13.0027 14.625 12.5258 14.8225 12.1742 15.1742C11.8225 15.5258 11.625 16.0027 11.625 16.5V25.5ZM24.375 12.375H13.5C12.406 12.375 11.3568 12.8096 10.5832 13.5832C9.8096 14.3568 9.375 15.406 9.375 16.5V21.375H7.5C7.00272 21.375 6.52581 21.1775 6.17417 20.8258C5.82254 20.4742 5.625 19.9973 5.625 19.5V10.5C5.625 10.0027 5.82254 9.52581 6.17417 9.17418C6.52581 8.82254 7.00272 8.625 7.5 8.625H22.5C22.9973 8.625 23.4742 8.82254 23.8258 9.17418C24.1775 9.52581 24.375 10.0027 24.375 10.5V12.375ZM21 19.125C20.5027 19.125 20.0258 19.3225 19.6742 19.6742C19.3225 20.0258 19.125 20.5027 19.125 21C19.125 21.4973 19.3225 21.9742 19.6742 22.3258C20.0258 22.6775 20.5027 22.875 21 22.875C21.4973 22.875 21.9742 22.6775 22.3258 22.3258C22.6775 21.9742 22.875 21.4973 22.875 21C22.875 20.5027 22.6775 20.0258 22.3258 19.6742C21.9742 19.3225 21.4973 19.125 21 19.125ZM18.0832 18.0832C18.8568 17.3096 19.906 16.875 21 16.875C22.094 16.875 23.1432 17.3096 23.9168 18.0832C24.6904 18.8568 25.125 19.906 25.125 21C25.125 22.094 24.6904 23.1432 23.9168 23.9168C23.1432 24.6904 22.094 25.125 21 25.125C19.906 25.125 18.8568 24.6904 18.0832 23.9168C17.3096 23.1432 16.875 22.094 16.875 21C16.875 19.906 17.3096 18.8568 18.0832 18.0832Z" fill="#4640DE"/>
</svg>
