<svg width="36" height="36" viewBox="0 0 36 36" fill="none" xmlns="http://www.w3.org/2000/svg">
<path d="M18.375 6.375C11.3041 6.375 5.625 11.9444 5.625 18.75C5.625 19.3713 5.12132 19.875 4.5 19.875C3.87868 19.875 3.375 19.3713 3.375 18.75C3.375 10.644 10.12 4.125 18.375 4.125C26.63 4.125 33.375 10.644 33.375 18.75C33.375 19.3713 32.8713 19.875 32.25 19.875C31.6287 19.875 31.125 19.3713 31.125 18.75C31.125 11.9444 25.4459 6.375 18.375 6.375Z" fill="#4640DE"/>
<path d="M7.048 21.4296C7.43086 21.5534 7.71846 21.8722 7.80224 22.2658L8.41112 25.1258L27.0012 25.1413C27.2436 25.1415 27.4795 25.22 27.6737 25.3651L33.6737 29.8488C34.0619 30.1389 34.2207 30.645 34.0678 31.1048C33.915 31.5647 33.4848 31.875 33.0003 31.875H6.00011C4.49468 31.875 3.22224 31.2345 2.49135 30.143C1.76241 29.0544 1.66854 27.6584 2.23566 26.3554C2.74258 25.1907 3.70825 24.0011 4.47275 23.1571C4.86706 22.7218 5.23228 22.3522 5.49923 22.091C5.63298 21.9601 5.74279 21.8558 5.82012 21.7833C5.85881 21.747 5.88942 21.7187 5.9109 21.6989L5.93617 21.6758L5.94343 21.6691L5.94567 21.6671C5.9458 21.667 5.94698 21.6659 6.7019 22.5L5.94698 21.6659C6.24531 21.3959 6.66513 21.3058 7.048 21.4296ZM4.29872 27.2533C4.63414 26.4827 5.33325 25.5716 6.03752 24.782L4.29872 27.2533ZM4.29872 27.2533C4.00717 27.9232 4.09906 28.5 4.36091 28.8911C4.62081 29.2792 5.14416 29.625 6.00011 29.625H29.6154L26.6259 27.391L7.49932 27.375C6.96863 27.3746 6.51042 27.0033 6.39992 26.4843L6.03752 24.782" fill="#4640DE"/>
<path d="M10.38 18.0368C10.5937 17.7761 10.913 17.625 11.25 17.625H13.5C13.7799 17.625 14.0497 17.7293 14.2568 17.9176L22.5068 25.4176C22.9665 25.8355 23.0004 26.547 22.5824 27.0068C22.1645 27.4665 21.453 27.5004 20.9933 27.0824L13.0651 19.875H12.6223L13.8532 26.0294C13.975 26.6386 13.5799 27.2313 12.9706 27.3532C12.3614 27.475 11.7687 27.0799 11.6469 26.4706L10.1469 18.9706C10.0808 18.6401 10.1663 18.2974 10.38 18.0368Z" fill="#4640DE"/>
</svg>
