<svg width="16" height="16" viewBox="0 0 16 16" fill="none" xmlns="http://www.w3.org/2000/svg">
<g clip-path="url(#clip0_1413_26725)">
<path d="M8 3.55556L4.88889 0H0L6.22222 7.55556L11.3427 5.44444L8 3.55556Z" fill="#55ACEE"/>
<path d="M11.1111 0L8 3.55556L10.3956 6.80533L10.9409 6.14356L16 0H11.1111Z" fill="#3B88C3"/>
<path d="M10.3376 7.12267C10.3731 7.02623 10.3958 6.92356 10.3958 6.81467C10.3958 6.324 9.99756 5.92578 9.50689 5.92578H6.54378C6.05267 5.92578 5.65489 6.324 5.65489 6.81467C5.65489 6.92356 5.67711 7.02623 5.71311 7.12267C4.26511 7.93423 3.28467 9.48134 3.28467 11.2591C3.28467 13.8773 5.40689 16 8.02556 16C10.6438 16 12.7664 13.8773 12.7664 11.2591C12.766 9.48134 11.786 7.93423 10.3376 7.12267Z" fill="#FFAC33"/>
<path d="M8.02577 14.8147C9.98945 14.8147 11.5813 13.2228 11.5813 11.2591C11.5813 9.29543 9.98945 7.70355 8.02577 7.70355C6.06209 7.70355 4.47021 9.29543 4.47021 11.2591C4.47021 13.2228 6.06209 14.8147 8.02577 14.8147Z" fill="#FFD983"/>
<path d="M9.45695 13.6151C9.39384 13.6151 9.33073 13.5955 9.27651 13.5569L8.00007 12.6418L6.72407 13.5569C6.61518 13.6347 6.4694 13.6347 6.3614 13.5555C6.2534 13.4773 6.20807 13.3382 6.24807 13.2115L6.72407 11.6755L5.45962 10.7844C5.35207 10.7053 5.30762 10.5658 5.34851 10.4387C5.38984 10.312 5.50762 10.2258 5.6414 10.2249L7.20762 10.2227L7.70629 8.72488C7.74851 8.59821 7.86673 8.51288 8.00051 8.51288C8.13384 8.51288 8.25251 8.59821 8.29473 8.72488L8.78495 10.2227L10.3592 10.2249C10.493 10.2258 10.6112 10.312 10.6521 10.4387C10.6934 10.5658 10.6485 10.7049 10.541 10.7844L9.27607 11.6755L9.75207 13.2115C9.79295 13.3387 9.74673 13.4773 9.63918 13.5555C9.58451 13.5955 9.52051 13.6151 9.45695 13.6151Z" fill="#FFAC33"/>
</g>
<defs>
<clipPath id="clip0_1413_26725">
<rect width="16" height="16" fill="white"/>
</clipPath>
</defs>
</svg>
