<svg width="36" height="36" viewBox="0 0 36 36" fill="none" xmlns="http://www.w3.org/2000/svg">
<path fill-rule="evenodd" clip-rule="evenodd" d="M2.625 14.25C2.625 12.8002 3.80026 11.625 5.25 11.625H30.75C32.1998 11.625 33.375 12.8002 33.375 14.25V29.25C33.375 30.6998 32.1998 31.875 30.75 31.875H5.25002C3.80028 31.875 2.62502 30.6998 2.62502 29.25L2.625 14.25ZM5.25 13.875C5.04288 13.875 4.875 14.0429 4.875 14.25L4.87502 29.25C4.87502 29.4571 5.04291 29.625 5.25002 29.625H30.75C30.9571 29.625 31.125 29.4571 31.125 29.25V14.25C31.125 14.0429 30.9571 13.875 30.75 13.875H5.25Z" fill="#4640DE"/>
<path fill-rule="evenodd" clip-rule="evenodd" d="M9.375 5.25C9.375 4.62868 9.87868 4.125 10.5 4.125H25.5C26.1213 4.125 26.625 4.62868 26.625 5.25V12.75C26.625 13.3713 26.1213 13.875 25.5 13.875H10.5C9.87868 13.875 9.375 13.3713 9.375 12.75V5.25ZM11.625 6.375V11.625H24.375V6.375H11.625Z" fill="#4640DE"/>
<path fill-rule="evenodd" clip-rule="evenodd" d="M13.125 21.75C13.125 21.1287 13.6287 20.625 14.25 20.625H21.75C22.3713 20.625 22.875 21.1287 22.875 21.75C22.875 22.3713 22.3713 22.875 21.75 22.875H14.25C13.6287 22.875 13.125 22.3713 13.125 21.75Z" fill="#4640DE"/>
<path fill-rule="evenodd" clip-rule="evenodd" d="M18 16.875C18.6213 16.875 19.125 17.3787 19.125 18V25.5C19.125 26.1213 18.6213 26.625 18 26.625C17.3787 26.625 16.875 26.1213 16.875 25.5V18C16.875 17.3787 17.3787 16.875 18 16.875Z" fill="#4640DE"/>
</svg>
