<svg width="36" height="36" viewBox="0 0 36 36" fill="none" xmlns="http://www.w3.org/2000/svg">
<path fill-rule="evenodd" clip-rule="evenodd" d="M4.875 9C4.875 8.37868 5.37868 7.875 6 7.875H18C18.6213 7.875 19.125 8.37868 19.125 9H18C19.125 9 19.125 8.99984 19.125 9L19.125 9.00439L19.125 9.0132L19.1248 9.04418C19.1246 9.07082 19.1242 9.1095 19.1234 9.1606C19.1219 9.26278 19.1188 9.41461 19.1128 9.61901C19.1008 10.0278 19.0769 10.647 19.0295 11.4999C18.9348 13.2057 18.7459 15.8473 18.3694 19.6119C17.9902 23.4043 17.4218 26.8139 16.9485 29.275C16.7117 30.5062 16.4984 31.5018 16.3439 32.1914C16.2666 32.5362 16.204 32.8046 16.1604 32.9877C16.1387 33.0793 16.1216 33.1496 16.11 33.1975L16.0965 33.2524L16.0929 33.267L16.0915 33.2726C16.0914 33.2727 16.0914 33.2729 15 33L16.0915 33.2726C15.9663 33.7734 15.5162 34.125 15 34.125H9C8.48377 34.125 8.03379 33.7737 7.90859 33.2729L9 33C7.90859 33.2729 7.90862 33.273 7.90859 33.2729L7.90712 33.267L7.90351 33.2524L7.89004 33.1975C7.87835 33.1496 7.86135 33.0793 7.83958 32.9877C7.79604 32.8046 7.73343 32.5362 7.65614 32.1914C7.50159 31.5018 7.28827 30.5062 7.05149 29.275C6.57822 26.8139 6.00981 23.4043 5.63058 19.6119C5.25412 15.8473 5.06525 13.2057 4.97048 11.4999C4.9231 10.647 4.89923 10.0278 4.88721 9.61901C4.88119 9.41461 4.87814 9.26278 4.87659 9.1606C4.87582 9.1095 4.87542 9.07082 4.87522 9.04418L4.87503 9.0132L4.87501 9.00439L4.875 9.00165C4.875 9.00149 4.875 9 6 9H4.875ZM7.15638 10.125C7.16992 10.461 7.18929 10.876 7.21702 11.3751C7.30975 13.0443 7.49588 15.6527 7.86942 19.3881C8.24019 23.0957 8.79678 26.4361 9.26101 28.85C9.49298 30.0563 9.70153 31.0294 9.85167 31.6993C9.86537 31.7604 9.87858 31.819 9.89128 31.875H14.1087C14.1214 31.819 14.1346 31.7604 14.1483 31.6993C14.2985 31.0294 14.507 30.0563 14.739 28.85C15.2032 26.4361 15.7598 23.0957 16.1306 19.3881C16.5041 15.6527 16.6902 13.0443 16.783 11.3751C16.8107 10.876 16.8301 10.461 16.8436 10.125H7.15638Z" fill="#4640DE"/>
<path fill-rule="evenodd" clip-rule="evenodd" d="M19.875 25.5C19.875 24.8787 20.3787 24.375 21 24.375H31.5C32.1213 24.375 32.625 24.8787 32.625 25.5H31.5C32.625 25.5 32.625 25.4997 32.625 25.5L32.625 25.5025L32.625 25.5055L32.6249 25.5132L32.6247 25.5352C32.6244 25.5528 32.6239 25.5762 32.6229 25.6051C32.6211 25.663 32.6175 25.7432 32.6108 25.8444C32.5973 26.0466 32.5711 26.3326 32.5199 26.6903C32.4177 27.4057 32.2159 28.4097 31.8173 29.6058C31.4135 30.8171 30.9103 31.8229 30.508 32.5269C30.3063 32.8799 30.1284 33.1597 29.9986 33.3545C29.9336 33.452 29.8805 33.5284 29.8423 33.5822C29.8231 33.6092 29.8077 33.6305 29.7964 33.646L29.7825 33.6649L29.7779 33.6711L29.7763 33.6733L29.7753 33.6746C29.7751 33.6748 29.775 33.675 28.875 33L29.7753 33.6746C29.5628 33.9579 29.2291 34.125 28.875 34.125H23.625C23.2709 34.125 22.9375 33.9583 22.725 33.675L23.625 33C22.725 33.675 22.7251 33.6752 22.725 33.675L22.7221 33.6711L22.7175 33.6649L22.7036 33.646C22.6923 33.6305 22.6769 33.6092 22.6577 33.5822C22.6195 33.5284 22.5664 33.452 22.5014 33.3545C22.3716 33.1597 22.1937 32.8799 21.992 32.5269C21.5897 31.8229 21.0865 30.8171 20.6827 29.6058C20.2841 28.4097 20.0823 27.4057 19.9801 26.6903C19.9289 26.3326 19.9027 26.0466 19.8892 25.8444C19.8825 25.7432 19.8789 25.663 19.877 25.6051C19.8761 25.5762 19.8756 25.5528 19.8753 25.5352L19.8751 25.5132L19.875 25.5055L19.875 25.5025L19.875 25.5C19.875 25.4997 19.875 25.5 21 25.5H19.875ZM22.2464 26.625C22.342 27.2044 22.5127 27.9806 22.8173 28.8942C23.1635 29.9329 23.5978 30.8021 23.9455 31.4106C24.0479 31.5897 24.1422 31.7453 24.2238 31.875H28.2762C28.3578 31.7453 28.4521 31.5897 28.5545 31.4106C28.9022 30.8021 29.3365 29.9329 29.6827 28.8942C29.9873 27.9806 30.158 27.2044 30.2536 26.625H22.2464ZM24.5263 32.3267C24.5267 32.3272 24.5265 32.327 24.5263 32.3267V32.3267Z" fill="#4640DE"/>
<path fill-rule="evenodd" clip-rule="evenodd" d="M26.25 8.625C26.8713 8.625 27.375 9.12868 27.375 9.75V25.5C27.375 26.1213 26.8713 26.625 26.25 26.625C25.6287 26.625 25.125 26.1213 25.125 25.5V9.75C25.125 9.12868 25.6287 8.625 26.25 8.625Z" fill="#4640DE"/>
<path fill-rule="evenodd" clip-rule="evenodd" d="M22.3374 4.5922C22.5488 4.29884 22.8884 4.125 23.25 4.125H29.25C29.6116 4.125 29.9512 4.29884 30.1627 4.5922C30.3741 4.88557 30.4316 5.26269 30.3173 5.60576L28.8173 10.1058C28.6641 10.5651 28.2342 10.875 27.75 10.875H24.75C24.2658 10.875 23.8359 10.5651 23.6827 10.1058L22.1827 5.60576C22.0684 5.26269 22.1259 4.88557 22.3374 4.5922ZM24.8109 6.375L25.5609 8.625H26.9392L27.6892 6.375H24.8109Z" fill="#4640DE"/>
<path fill-rule="evenodd" clip-rule="evenodd" d="M7.125 4.5C7.125 3.87868 7.62868 3.375 8.25 3.375H15.75C16.3713 3.375 16.875 3.87868 16.875 4.5V9C16.875 9.62132 16.3713 10.125 15.75 10.125H8.25C7.62868 10.125 7.125 9.62132 7.125 9V4.5ZM9.375 5.625V7.875H14.625V5.625H9.375Z" fill="#4640DE"/>
</svg>
