<svg width="25" height="28" viewBox="0 0 25 28" fill="none" xmlns="http://www.w3.org/2000/svg">
<path d="M3.60769 22.0207L4.1077 21.1547L3.6077 22.0207L10 25.7113C11.547 26.6045 13.453 26.6045 15 25.7113L21.3923 22.0207C22.9393 21.1276 23.8923 19.4769 23.8923 17.6906V10.3094C23.8923 8.52307 22.9393 6.87244 21.3923 5.97927L15 2.28868C13.453 1.39551 11.547 1.39551 10 2.28868L3.6077 5.97927C2.06069 6.87244 1.1077 8.52307 1.1077 10.3094V17.6906C1.1077 19.4769 2.06069 21.1276 3.60769 22.0207Z" fill="#45B36B" stroke="#FCFCFD" stroke-width="2"/>
<path d="M11.6022 9.56332C11.7067 9.38035 11.5519 9.15804 11.344 9.19269L10.3723 9.35464C10.2238 9.37939 10.1307 9.52885 10.174 9.67307L10.4766 10.682C10.5398 10.8924 10.8242 10.9249 10.9332 10.7342L11.6022 9.56332Z" fill="#FCFCFD"/>
<path d="M9.31664 10.2957C9.2609 10.1099 9.02488 10.0565 8.89829 10.2034C8.50573 10.6592 8.13496 11.138 7.75102 11.5988C7.72965 11.6244 7.70927 11.6506 7.68986 11.6773C7.58574 11.8204 7.70404 12 7.88104 12H9.4919C9.65937 12 9.77948 11.8385 9.73136 11.6781L9.31664 10.2957Z" fill="#FCFCFD"/>
<path d="M7.80794 13C7.63978 13 7.52038 13.1639 7.60458 13.3095C7.6316 13.3562 7.66136 13.4018 7.69385 13.4461L11.2905 18.3506C11.3506 18.4326 11.417 18.5064 11.4884 18.5719C11.6437 18.7145 11.8383 18.5502 11.7762 18.3487L10.1824 13.1764C10.1501 13.0715 10.0532 13 9.94346 13H7.80794Z" fill="#FCFCFD"/>
<path d="M13.2238 18.3488C13.1617 18.5503 13.3563 18.7147 13.5116 18.5721C13.5831 18.5065 13.6495 18.4327 13.7097 18.3506L17.3063 13.4461C17.3388 13.4018 17.3686 13.3562 17.3956 13.3095C17.4798 13.1639 17.3604 13 17.1922 13H15.0567C14.9469 13 14.85 13.0715 14.8177 13.1764L13.2238 18.3488Z" fill="#FCFCFD"/>
<path d="M17.1189 11.9999C17.2959 11.9999 17.4142 11.8204 17.3101 11.6772C17.2907 11.6505 17.2703 11.6244 17.2489 11.5987C16.865 11.138 16.4942 10.6591 16.1016 10.2033C15.975 10.0563 15.739 10.1098 15.6833 10.2956L15.2685 11.6781C15.2204 11.8385 15.3405 11.9999 15.508 11.9999H17.1189Z" fill="#FCFCFD"/>
<path d="M14.6277 9.35465C14.7762 9.37941 14.8693 9.52887 14.8261 9.67309L14.5234 10.682C14.4603 10.8925 14.1759 10.925 14.0669 10.7342L13.3978 9.56332C13.2932 9.38035 13.4481 9.15804 13.6559 9.19269L14.6277 9.35465Z" fill="#FCFCFD"/>
<path d="M12.5 10.0078L13.4247 11.626C13.5199 11.7927 13.3996 12 13.2076 12H11.7924C11.6004 12 11.4801 11.7927 11.5753 11.626L12.5 10.0078Z" fill="#FCFCFD"/>
<path d="M12.739 16.5232C12.6666 16.7586 12.3335 16.7586 12.2611 16.5232L11.2766 13.3235C11.2271 13.1628 11.3474 13 11.5156 13H13.4846C13.6528 13 13.773 13.1628 13.7236 13.3235L12.739 16.5232Z" fill="#FCFCFD"/>
</svg>
