<svg width="16" height="16" viewBox="0 0 16 16" fill="none" xmlns="http://www.w3.org/2000/svg">
<path d="M6.28821 0.116492C6.37722 0.14677 6.46417 0.182786 6.54851 0.224315L7.56323 0.723902C7.83862 0.859492 8.16138 0.859492 8.43677 0.723902L9.45148 0.224315C10.5294 -0.306374 11.8334 0.137215 12.3641 1.2151L12.4222 1.3435L12.4719 1.47541L12.8361 2.54618C12.935 2.83679 13.1632 3.06501 13.4538 3.16387L14.5246 3.52812C15.662 3.91504 16.2704 5.15078 15.8835 6.28821C15.8532 6.37722 15.8172 6.46417 15.7757 6.54851L15.2761 7.56323C15.1405 7.83862 15.1405 8.16138 15.2761 8.43677L15.7757 9.45148C16.3064 10.5294 15.8628 11.8334 14.7849 12.3641C14.7006 12.4056 14.6136 12.4416 14.5246 12.4719L13.4538 12.8361C13.1632 12.935 12.935 13.1632 12.8361 13.4538L12.4719 14.5246C12.085 15.662 10.8492 16.2704 9.71179 15.8835C9.62278 15.8532 9.53583 15.8172 9.45148 15.7757L8.43677 15.2761C8.16138 15.1405 7.83862 15.1405 7.56323 15.2761L6.54851 15.7757C5.47063 16.3064 4.16663 15.8628 3.63594 14.7849C3.59441 14.7006 3.55839 14.6136 3.52812 14.5246L3.16387 13.4538C3.06501 13.1632 2.83679 12.935 2.54618 12.8361L1.47541 12.4719C0.337973 12.085 -0.270433 10.8492 0.116492 9.71179C0.14677 9.62278 0.182786 9.53583 0.224315 9.45148L0.723902 8.43677C0.859492 8.16138 0.859492 7.83862 0.723902 7.56323L0.224315 6.54851C-0.306374 5.47063 0.137215 4.16663 1.2151 3.63594C1.29945 3.59441 1.3864 3.55839 1.47541 3.52812L2.54618 3.16387C2.83679 3.06501 3.06501 2.83679 3.16387 2.54618L3.52812 1.47541C3.91504 0.337973 5.15078 -0.270433 6.28821 0.116492Z" fill="white"/>
<path d="M6.55724 1.35611C6.63225 1.38163 6.70553 1.41198 6.77661 1.44698L7.63177 1.86801C7.86386 1.98228 8.13586 1.98228 8.36795 1.86801L9.22311 1.44698C10.1315 0.999736 11.2305 1.37357 11.6777 2.28197L11.7267 2.39018L11.7686 2.50134L12.0755 3.40374C12.1589 3.64866 12.3512 3.84099 12.5961 3.9243L13.4985 4.23127C14.4571 4.55736 14.9698 5.59878 14.6437 6.55736C14.6182 6.63237 14.5879 6.70565 14.5529 6.77673L14.1318 7.63189C14.0176 7.86398 14.0176 8.13598 14.1318 8.36807L14.5529 9.22323C15.0001 10.1316 14.6263 11.2306 13.7179 11.6778C13.6468 11.7128 13.5735 11.7432 13.4985 11.7687L12.5961 12.0757C12.3512 12.159 12.1589 12.3513 12.0755 12.5962L11.7686 13.4986C11.4425 14.4572 10.4011 14.9699 9.44248 14.6439C9.36747 14.6183 9.29419 14.588 9.22311 14.553L8.36795 14.132C8.13586 14.0177 7.86386 14.0177 7.63177 14.132L6.77661 14.553C5.86822 15.0002 4.76926 14.6264 4.32202 13.718C4.28702 13.6469 4.25667 13.5736 4.23115 13.4986L3.92418 12.5962C3.84087 12.3513 3.64853 12.159 3.40362 12.0757L2.50122 11.7687C1.54264 11.4426 1.0299 10.4012 1.35599 9.4426C1.3815 9.36759 1.41186 9.29431 1.44685 9.22323L1.86789 8.36807C1.98215 8.13598 1.98215 7.86398 1.86789 7.63189L1.44685 6.77673C0.999614 5.86834 1.37345 4.76938 2.28184 4.32214C2.35293 4.28714 2.42621 4.25679 2.50122 4.23127L3.40362 3.9243C3.64853 3.84099 3.84087 3.64866 3.92418 3.40374L4.23115 2.50134C4.55724 1.54276 5.59866 1.03003 6.55724 1.35611ZM10.313 5.97976L6.70012 9.59261L5.38397 8.01322C5.20719 7.80108 4.89191 7.77242 4.67977 7.9492C4.46763 8.12599 4.43897 8.44127 4.61575 8.65341L6.28242 10.6534C6.47064 10.8793 6.81218 10.8948 7.02008 10.6869L11.0201 6.68687C11.2153 6.49161 11.2153 6.17502 11.0201 5.97976C10.8248 5.7845 10.5082 5.7845 10.313 5.97976Z" fill="#28A745"/>
</svg>
