<svg width="36" height="36" viewBox="0 0 36 36" fill="none" xmlns="http://www.w3.org/2000/svg">
<path fill-rule="evenodd" clip-rule="evenodd" d="M1.875 13.5C1.875 12.8787 2.37868 12.375 3 12.375H33C33.6213 12.375 34.125 12.8787 34.125 13.5V31.5C34.125 32.1213 33.6213 32.625 33 32.625H3C2.37868 32.625 1.875 32.1213 1.875 31.5V13.5ZM4.125 14.625V30.375H31.875V14.625H4.125Z" fill="#4640DE"/>
<path fill-rule="evenodd" clip-rule="evenodd" d="M15.375 18C15.375 17.3787 15.8787 16.875 16.5 16.875H19.5C20.1213 16.875 20.625 17.3787 20.625 18C20.625 18.6213 20.1213 19.125 19.5 19.125H16.5C15.8787 19.125 15.375 18.6213 15.375 18Z" fill="#4640DE"/>
<path fill-rule="evenodd" clip-rule="evenodd" d="M1.875 22.5C1.875 21.8787 2.37868 21.375 3 21.375H33C33.6213 21.375 34.125 21.8787 34.125 22.5C34.125 23.1213 33.6213 23.625 33 23.625H3C2.37868 23.625 1.875 23.1213 1.875 22.5Z" fill="#4640DE"/>
<path fill-rule="evenodd" clip-rule="evenodd" d="M15.375 27C15.375 26.3787 15.8787 25.875 16.5 25.875H19.5C20.1213 25.875 20.625 26.3787 20.625 27C20.625 27.6213 20.1213 28.125 19.5 28.125H16.5C15.8787 28.125 15.375 27.6213 15.375 27Z" fill="#4640DE"/>
<path fill-rule="evenodd" clip-rule="evenodd" d="M6 30.375C6.62132 30.375 7.125 30.8787 7.125 31.5V34.5C7.125 35.1213 6.62132 35.625 6 35.625C5.37868 35.625 4.875 35.1213 4.875 34.5V31.5C4.875 30.8787 5.37868 30.375 6 30.375Z" fill="#4640DE"/>
<path fill-rule="evenodd" clip-rule="evenodd" d="M30 30.375C30.6213 30.375 31.125 30.8787 31.125 31.5V34.5C31.125 35.1213 30.6213 35.625 30 35.625C29.3787 35.625 28.875 35.1213 28.875 34.5V31.5C28.875 30.8787 29.3787 30.375 30 30.375Z" fill="#4640DE"/>
<path fill-rule="evenodd" clip-rule="evenodd" d="M18 6.375C18.6213 6.375 19.125 6.87868 19.125 7.5V13.5C19.125 14.1213 18.6213 14.625 18 14.625C17.3787 14.625 16.875 14.1213 16.875 13.5V7.5C16.875 6.87868 17.3787 6.375 18 6.375Z" fill="#4640DE"/>
<path fill-rule="evenodd" clip-rule="evenodd" d="M10.875 7.5C10.875 3.56497 14.065 0.375 18 0.375C21.935 0.375 25.125 3.56497 25.125 7.5C25.125 8.12132 24.6213 8.625 24 8.625H12C11.3787 8.625 10.875 8.12132 10.875 7.5ZM13.2554 6.375H22.7446C22.2367 4.22497 20.3052 2.625 18 2.625C15.6948 2.625 13.7633 4.22497 13.2554 6.375Z" fill="#4640DE"/>
<path fill-rule="evenodd" clip-rule="evenodd" d="M33 18.375C33.6213 18.375 34.125 18.8787 34.125 19.5V25.5C34.125 26.1213 33.6213 26.625 33 26.625C32.3787 26.625 31.875 26.1213 31.875 25.5V19.5C31.875 18.8787 32.3787 18.375 33 18.375Z" fill="#4640DE"/>
<path fill-rule="evenodd" clip-rule="evenodd" d="M3 18.375C3.62132 18.375 4.125 18.8787 4.125 19.5V25.5C4.125 26.1213 3.62132 26.625 3 26.625C2.37868 26.625 1.875 26.1213 1.875 25.5V19.5C1.875 18.8787 2.37868 18.375 3 18.375Z" fill="#4640DE"/>
</svg>
