<svg width="128" height="128" viewBox="0 0 128 128" fill="none" xmlns="http://www.w3.org/2000/svg">
<path d="M0 64C0 28.6538 28.6538 0 64 0C99.3462 0 128 28.6538 128 64C128 99.3462 99.3462 128 64 128C28.6538 128 0 99.3462 0 64Z" fill="url(#paint0_linear_414_21450)"/>
<mask id="mask0_414_21450" style="mask-type:alpha" maskUnits="userSpaceOnUse" x="0" y="0" width="128" height="128">
<path d="M0 64C0 28.6538 28.6538 0 64 0C99.3462 0 128 28.6538 128 64C128 99.3462 99.3462 128 64 128C28.6538 128 0 99.3462 0 64Z" fill="url(#paint1_linear_414_21450)"/>
</mask>
<g mask="url(#mask0_414_21450)">
<path d="M121.486 -2.71962C125.188 -5.88031 130.917 -4.19272 132.314 0.469954L180.988 162.903C182.893 169.262 175.425 174.253 170.279 170.06L48.0295 70.449C44.77 67.7931 44.7129 62.8332 47.9104 60.103L121.486 -2.71962Z" fill="url(#paint2_linear_414_21450)"/>
<path d="M141.965 0.625766C145.555 -1.76794 150.439 -0.21583 151.989 3.81154L208.102 149.621C210.398 155.586 203.873 161.096 198.376 157.834L52.9918 71.5384C48.7271 69.0069 48.567 62.8909 52.6936 60.1398L141.965 0.625766Z" fill="url(#paint3_linear_414_21450)"/>
<path d="M166.269 10.2857C170.15 8.45926 174.727 10.6768 175.699 14.8546L202.268 129.042C203.553 134.566 197.854 139.109 192.756 136.625L60.4792 72.1826C55.3928 69.7046 55.4418 62.4398 60.5612 60.0307L166.269 10.2857Z" fill="url(#paint4_linear_414_21450)"/>
</g>
<defs>
<linearGradient id="paint0_linear_414_21450" x1="0" y1="0" x2="128" y2="128" gradientUnits="userSpaceOnUse">
<stop stop-color="#4640DE"/>
<stop offset="0.9998" stop-color="#074CD1"/>
<stop offset="0.9999" stop-color="#12213E" stop-opacity="0.015625"/>
<stop offset="1" stop-color="#1044A8"/>
</linearGradient>
<linearGradient id="paint1_linear_414_21450" x1="0" y1="0" x2="128" y2="128" gradientUnits="userSpaceOnUse">
<stop stop-color="#12213E"/>
<stop offset="0.9998" stop-color="#074CD1"/>
<stop offset="0.9999" stop-color="#12213E" stop-opacity="0.015625"/>
<stop offset="1" stop-color="#1952C1"/>
</linearGradient>
<linearGradient id="paint2_linear_414_21450" x1="115.405" y1="17.207" x2="115.405" y2="125.953" gradientUnits="userSpaceOnUse">
<stop stop-color="white" stop-opacity="0.6"/>
<stop offset="1" stop-color="white" stop-opacity="0"/>
</linearGradient>
<linearGradient id="paint3_linear_414_21450" x1="131.457" y1="18.9996" x2="131.457" y2="117.468" gradientUnits="userSpaceOnUse">
<stop stop-color="white" stop-opacity="0.6"/>
<stop offset="1" stop-color="white" stop-opacity="0"/>
</linearGradient>
<linearGradient id="paint4_linear_414_21450" x1="131.703" y1="25.275" x2="131.703" y2="104.191" gradientUnits="userSpaceOnUse">
<stop stop-color="white" stop-opacity="0.6"/>
<stop offset="1" stop-color="white" stop-opacity="0"/>
</linearGradient>
</defs>
</svg>
