<svg width="64" height="64" viewBox="0 0 64 64" fill="none" xmlns="http://www.w3.org/2000/svg">
<path d="M0 32C0 14.3269 14.3269 0 32 0C49.6731 0 64 14.3269 64 32C64 49.6731 49.6731 64 32 64C14.3269 64 0 49.6731 0 32Z" fill="url(#paint0_linear_415_21364)"/>
<mask id="mask0_415_21364" style="mask-type:alpha" maskUnits="userSpaceOnUse" x="0" y="0" width="64" height="64">
<path d="M0 32C0 14.3269 14.3269 0 32 0C49.6731 0 64 14.3269 64 32C64 49.6731 49.6731 64 32 64C14.3269 64 0 49.6731 0 32Z" fill="url(#paint1_linear_415_21364)"/>
</mask>
<g mask="url(#mask0_415_21364)">
<path d="M60.7434 -1.35981C62.5942 -2.94015 65.4587 -2.09636 66.1573 0.234977L90.494 81.4516C91.4467 84.6309 87.7125 87.1263 85.1396 85.0298L24.0149 35.2245C22.3851 33.8965 22.3566 31.4166 23.9553 30.0515L60.7434 -1.35981Z" fill="url(#paint2_linear_415_21364)"/>
<path d="M70.9827 0.312883C72.778 -0.883969 75.2199 -0.107915 75.9948 1.90577L104.051 74.8105C105.199 77.7931 101.937 80.5481 99.1885 78.9169L26.4963 35.7692C24.3639 34.5035 24.2839 31.4454 26.3471 30.0699L70.9827 0.312883Z" fill="url(#paint3_linear_415_21364)"/>
<path d="M83.1349 5.14282C85.0754 4.22963 87.3639 5.3384 87.8499 7.42728L101.134 64.521C101.777 67.2829 98.9274 69.5545 96.3781 68.3125L30.2398 36.0913C27.6966 34.8523 27.7212 31.2199 30.2808 30.0153L83.1349 5.14282Z" fill="url(#paint4_linear_415_21364)"/>
</g>
<defs>
<linearGradient id="paint0_linear_415_21364" x1="0" y1="0" x2="64" y2="64" gradientUnits="userSpaceOnUse">
<stop stop-color="#4640DE"/>
<stop offset="0.9998" stop-color="#074CD1"/>
<stop offset="0.9999" stop-color="#12213E" stop-opacity="0.015625"/>
<stop offset="1" stop-color="#1044A8"/>
</linearGradient>
<linearGradient id="paint1_linear_415_21364" x1="0" y1="0" x2="64" y2="64" gradientUnits="userSpaceOnUse">
<stop stop-color="#12213E"/>
<stop offset="0.9998" stop-color="#074CD1"/>
<stop offset="0.9999" stop-color="#12213E" stop-opacity="0.015625"/>
<stop offset="1" stop-color="#1952C1"/>
</linearGradient>
<linearGradient id="paint2_linear_415_21364" x1="57.7024" y1="8.60352" x2="57.7024" y2="62.9763" gradientUnits="userSpaceOnUse">
<stop stop-color="white" stop-opacity="0.6"/>
<stop offset="1" stop-color="white" stop-opacity="0"/>
</linearGradient>
<linearGradient id="paint3_linear_415_21364" x1="65.7289" y1="9.49978" x2="65.7289" y2="58.7339" gradientUnits="userSpaceOnUse">
<stop stop-color="white" stop-opacity="0.6"/>
<stop offset="1" stop-color="white" stop-opacity="0"/>
</linearGradient>
<linearGradient id="paint4_linear_415_21364" x1="65.8518" y1="12.6375" x2="65.8518" y2="52.0957" gradientUnits="userSpaceOnUse">
<stop stop-color="white" stop-opacity="0.6"/>
<stop offset="1" stop-color="white" stop-opacity="0"/>
</linearGradient>
</defs>
</svg>
